<?xml version="1.0" encoding="iso-8859-1"?>
<!-- Generator: Adobe Illustrator 19.0.0, SVG Export Plug-In . SVG Version: 6.00 Build 0)  -->
<svg version="1.1" id="Capa_1" xmlns="http://www.w3.org/2000/svg" xmlns:xlink="http://www.w3.org/1999/xlink" x="0" y="0"
	 viewBox="0 0 490 490" style="enable-background:new 0 0 490 490;" xml:space="preserve" width="33px" heith="33px">
<g>
	<g>
		<g>
			<path d="M245,60.3C143.1,60.3,60.3,143.1,60.3,245S143.1,429.7,245,429.7S429.7,346.9,429.7,245S346.9,60.3,245,60.3z M245,83.6
				c35.8,0,64.9,16.7,64.9,37.3c0,12.1-6.2,46.7-18.7,72.7c-15.4-13.6-50.4-26.7-82.4-7.4c-16.7-24.9-28.4-54.1-28.4-65.3
				C180.1,100.3,209.2,83.6,245,83.6z M294.4,245c0,27.2-22.2,49.4-49.4,49.4s-49.4-22.2-49.4-49.4s22.2-49.4,49.4-49.4
				S294.4,217.8,294.4,245z M83.6,245c0-35.8,16.7-64.9,37.3-64.9c12.1,0,46.7,6.2,72.7,18.7c-29.4,29.2-14,71.9-7.4,82.4
				c-24.9,16.7-54.1,28.4-65.3,28.4C100.3,309.9,83.6,280.8,83.6,245z M245,406.4c-35.8,0-64.9-16.7-64.9-37.3
				c0-12.1,6.2-46.7,18.7-72.7c15.9,13.6,52.2,26.5,82.4,7.4c16.7,24.9,28.4,54.1,28.4,65.3C309.9,389.7,280.8,406.4,245,406.4z
				 M369.4,309.9c-12.1,0-46.7-6.2-72.7-18.7c10.9-12.4,28.9-46.5,7.4-82.4c24.9-16.7,54.1-28.4,65.3-28.4
				c20.6,0,37.3,29.2,37.3,64.9C406.4,280.8,389.7,309.9,369.4,309.9z"/>
			<path d="M0,0v490h490V0H0z M63,31.9c14.4,0,26.1,11.7,26.1,26.1S77.4,84,63,84S36.9,72.3,36.9,57.9S48.6,31.9,63,31.9z M63,458.1
				c-14.4,0-26.1-11.7-26.1-26.1s11.7-26.1,26.1-26.1s26.1,11.7,26.1,26.1S77.4,458.1,63,458.1z M245,449.6
				c-112.8,0-204.6-91.8-204.6-204.6S132.2,40.4,245,40.4S449.6,132.2,449.6,245S357.8,449.6,245,449.6z M427,458.1
				c-14.4,0-26.1-11.7-26.1-26.1s11.7-26.1,26.1-26.1s26.1,11.7,26.1,26.1S441.4,458.1,427,458.1z M427,84
				c-14.4,0-26.1-11.7-26.1-26.1s11.7-26.1,26.1-26.1s26.1,11.7,26.1,26.1S441.4,84,427,84z"/>
		</g>
	</g>
</g>
<g>
</g>
<g>
</g>
<g>
</g>
<g>
</g>
<g>
</g>
<g>
</g>
<g>
</g>
<g>
</g>
<g>
</g>
<g>
</g>
<g>
</g>
<g>
</g>
<g>
</g>
<g>
</g>
<g>
</g>
</svg>
